# xmcd
# 
# Track frame offsets:
#     150
#     21078
#     41276
#     60084
#     84390
#     117909
#     140114
#     157940
#     179772
#     195294
#     215107
#     231022
#     250691
#     277287
#     296900
# 
# Disc length: 4182
# 
# Revision: 1
# Processed by: cddbd v1.5.2PL0 Copyright (c) Steve Scherf et al.
# Submitted via: fre:ac v1.0.27
# 
DISCID=d710540f
DTITLE=New Order - Singles Cd 1
DYEAR=2005
DGENRE=New Wave
TTITLE0=Ceremony
TTITLE1=Procession
TTITLE2=Everything's Gone Green
TTITLE3=Temptation
TTITLE4=Blue Monday
TTITLE5=Confusion
TTITLE6=Thieves Like Us
TTITLE7=The Perfect Kiss
TTITLE8=Sub-Culture
TTITLE9=Shellshock
TTITLE10=State Of The Nation
TTITLE11=Bizarre Love Triangle
TTITLE12=True Faith
TTITLE13=1963
TTITLE14=Touched By The Hand Of God
EXTD=
EXTT0=
EXTT1=
EXTT2=
EXTT3=
EXTT4=
EXTT5=
EXTT6=
EXTT7=
EXTT8=
EXTT9=
EXTT10=
EXTT11=
EXTT12=
EXTT13=
EXTT14=
PLAYORDER=
